<?xml version="1.0" encoding="utf-8" standalone="no"?>
<!DOCTYPE svg PUBLIC "-//W3C//DTD SVG 1.1//EN"
  "http://www.w3.org/Graphics/SVG/1.1/DTD/svg11.dtd">
<svg xmlns:xlink="http://www.w3.org/1999/xlink" width="777.111525pt" height="479.321906pt" viewBox="0 0 777.111525 479.321906" xmlns="http://www.w3.org/2000/svg" version="1.1">
 <metadata>
  <rdf:RDF xmlns:dc="http://purl.org/dc/elements/1.1/" xmlns:cc="http://creativecommons.org/ns#" xmlns:rdf="http://www.w3.org/1999/02/22-rdf-syntax-ns#">
   <cc:Work>
    <dc:type rdf:resource="http://purl.org/dc/dcmitype/StillImage"/>
    <dc:date>2026-05-11T21:14:06.311094</dc:date>
    <dc:format>image/svg+xml</dc:format>
    <dc:creator>
     <cc:Agent>
      <dc:title>Matplotlib v3.10.9, https://matplotlib.org/</dc:title>
     </cc:Agent>
    </dc:creator>
   </cc:Work>
  </rdf:RDF>
 </metadata>
 <defs>
  <style type="text/css">*{stroke-linejoin: round; stroke-linecap: butt}</style>
 </defs>
 <g id="figure_1">
  <g id="patch_1">
   <path d="M 0 479.321906 
L 777.111525 479.321906 
L 777.111525 0 
L 0 0 
z
" style="fill: #ffffff"/>
  </g>
  <g id="axes_1">
   <g id="patch_2">
    <path d="M 56.784375 441.765656 
L 622.704375 441.765656 
L 622.704375 42.597656 
L 56.784375 42.597656 
z
" style="fill: #ffffff"/>
   </g>
   <g id="matplotlib.axis_1">
    <g id="xtick_1">
     <g id="line2d_1">
      <path d="M 56.784375 441.765656 
L 56.784375 42.597656 
" clip-path="url(#pdf4b5997ff)" style="fill: none; stroke: #e5e7eb; stroke-width: 0.9; stroke-linecap: square"/>
     </g>
     <g id="line2d_2">
      <defs>
       <path id="m70ca6702f7" d="M 0 0 
L 0 3.5 
" style="stroke: #000000; stroke-width: 0.8"/>
      </defs>
      <g>
       <use xlink:href="#m70ca6702f7" x="56.784375" y="441.765656" style="stroke: #000000; stroke-width: 0.8"/>
      </g>
     </g>
     <g id="text_1">
      <!-- 1 -->
      <g transform="translate(53.603125 456.364094) scale(0.1 -0.1)">
       <defs>
        <path id="DejaVuSans-31" d="M 794 531 
L 1825 531 
L 1825 4091 
L 703 3866 
L 703 4441 
L 1819 4666 
L 2450 4666 
L 2450 531 
L 3481 531 
L 3481 0 
L 794 0 
L 794 531 
z
" transform="scale(0.015625)"/>
       </defs>
       <use xlink:href="#DejaVuSans-31"/>
      </g>
     </g>
    </g>
    <g id="xtick_2">
     <g id="line2d_3">
      <path d="M 129.80631 441.765656 
L 129.80631 42.597656 
" clip-path="url(#pdf4b5997ff)" style="fill: none; stroke: #e5e7eb; stroke-width: 0.9; stroke-linecap: square"/>
     </g>
     <g id="line2d_4">
      <g>
       <use xlink:href="#m70ca6702f7" x="129.80631" y="441.765656" style="stroke: #000000; stroke-width: 0.8"/>
      </g>
     </g>
     <g id="text_2">
      <!-- 5 -->
      <g transform="translate(126.62506 456.364094) scale(0.1 -0.1)">
       <defs>
        <path id="DejaVuSans-35" d="M 691 4666 
L 3169 4666 
L 3169 4134 
L 1269 4134 
L 1269 2991 
Q 1406 3038 1543 3061 
Q 1681 3084 1819 3084 
Q 2600 3084 3056 2656 
Q 3513 2228 3513 1497 
Q 3513 744 3044 326 
Q 2575 -91 1722 -91 
Q 1428 -91 1123 -41 
Q 819 9 494 109 
L 494 744 
Q 775 591 1075 516 
Q 1375 441 1709 441 
Q 2250 441 2565 725 
Q 2881 1009 2881 1497 
Q 2881 1984 2565 2268 
Q 2250 2553 1709 2553 
Q 1456 2553 1204 2497 
Q 953 2441 691 2322 
L 691 4666 
z
" transform="scale(0.015625)"/>
       </defs>
       <use xlink:href="#DejaVuSans-35"/>
      </g>
     </g>
    </g>
    <g id="xtick_3">
     <g id="line2d_5">
      <path d="M 202.828246 441.765656 
L 202.828246 42.597656 
" clip-path="url(#pdf4b5997ff)" style="fill: none; stroke: #e5e7eb; stroke-width: 0.9; stroke-linecap: square"/>
     </g>
     <g id="line2d_6">
      <g>
       <use xlink:href="#m70ca6702f7" x="202.828246" y="441.765656" style="stroke: #000000; stroke-width: 0.8"/>
      </g>
     </g>
     <g id="text_3">
      <!-- 9 -->
      <g transform="translate(199.646996 456.364094) scale(0.1 -0.1)">
       <defs>
        <path id="DejaVuSans-39" d="M 703 97 
L 703 672 
Q 941 559 1184 500 
Q 1428 441 1663 441 
Q 2288 441 2617 861 
Q 2947 1281 2994 2138 
Q 2813 1869 2534 1725 
Q 2256 1581 1919 1581 
Q 1219 1581 811 2004 
Q 403 2428 403 3163 
Q 403 3881 828 4315 
Q 1253 4750 1959 4750 
Q 2769 4750 3195 4129 
Q 3622 3509 3622 2328 
Q 3622 1225 3098 567 
Q 2575 -91 1691 -91 
Q 1453 -91 1209 -44 
Q 966 3 703 97 
z
M 1959 2075 
Q 2384 2075 2632 2365 
Q 2881 2656 2881 3163 
Q 2881 3666 2632 3958 
Q 2384 4250 1959 4250 
Q 1534 4250 1286 3958 
Q 1038 3666 1038 3163 
Q 1038 2656 1286 2365 
Q 1534 2075 1959 2075 
z
" transform="scale(0.015625)"/>
       </defs>
       <use xlink:href="#DejaVuSans-39"/>
      </g>
     </g>
    </g>
    <g id="xtick_4">
     <g id="line2d_7">
      <path d="M 275.850181 441.765656 
L 275.850181 42.597656 
" clip-path="url(#pdf4b5997ff)" style="fill: none; stroke: #e5e7eb; stroke-width: 0.9; stroke-linecap: square"/>
     </g>
     <g id="line2d_8">
      <g>
       <use xlink:href="#m70ca6702f7" x="275.850181" y="441.765656" style="stroke: #000000; stroke-width: 0.8"/>
      </g>
     </g>
     <g id="text_4">
      <!-- 13 -->
      <g transform="translate(269.487681 456.364094) scale(0.1 -0.1)">
       <defs>
        <path id="DejaVuSans-33" d="M 2597 2516 
Q 3050 2419 3304 2112 
Q 3559 1806 3559 1356 
Q 3559 666 3084 287 
Q 2609 -91 1734 -91 
Q 1441 -91 1130 -33 
Q 819 25 488 141 
L 488 750 
Q 750 597 1062 519 
Q 1375 441 1716 441 
Q 2309 441 2620 675 
Q 2931 909 2931 1356 
Q 2931 1769 2642 2001 
Q 2353 2234 1838 2234 
L 1294 2234 
L 1294 2753 
L 1863 2753 
Q 2328 2753 2575 2939 
Q 2822 3125 2822 3475 
Q 2822 3834 2567 4026 
Q 2313 4219 1838 4219 
Q 1578 4219 1281 4162 
Q 984 4106 628 3988 
L 628 4550 
Q 988 4650 1302 4700 
Q 1616 4750 1894 4750 
Q 2613 4750 3031 4423 
Q 3450 4097 3450 3541 
Q 3450 3153 3228 2886 
Q 3006 2619 2597 2516 
z
" transform="scale(0.015625)"/>
       </defs>
       <use xlink:href="#DejaVuSans-31"/>
       <use xlink:href="#DejaVuSans-33" transform="translate(63.623047 0)"/>
      </g>
     </g>
    </g>
    <g id="xtick_5">
     <g id="line2d_9">
      <path d="M 348.872117 441.765656 
L 348.872117 42.597656 
" clip-path="url(#pdf4b5997ff)" style="fill: none; stroke: #e5e7eb; stroke-width: 0.9; stroke-linecap: square"/>
     </g>
     <g id="line2d_10">
      <g>
       <use xlink:href="#m70ca6702f7" x="348.872117" y="441.765656" style="stroke: #000000; stroke-width: 0.8"/>
      </g>
     </g>
     <g id="text_5">
      <!-- 17 -->
      <g transform="translate(342.509617 456.364094) scale(0.1 -0.1)">
       <defs>
        <path id="DejaVuSans-37" d="M 525 4666 
L 3525 4666 
L 3525 4397 
L 1831 0 
L 1172 0 
L 2766 4134 
L 525 4134 
L 525 4666 
z
" transform="scale(0.015625)"/>
       </defs>
       <use xlink:href="#DejaVuSans-31"/>
       <use xlink:href="#DejaVuSans-37" transform="translate(63.623047 0)"/>
      </g>
     </g>
    </g>
    <g id="xtick_6">
     <g id="line2d_11">
      <path d="M 421.894052 441.765656 
L 421.894052 42.597656 
" clip-path="url(#pdf4b5997ff)" style="fill: none; stroke: #e5e7eb; stroke-width: 0.9; stroke-linecap: square"/>
     </g>
     <g id="line2d_12">
      <g>
       <use xlink:href="#m70ca6702f7" x="421.894052" y="441.765656" style="stroke: #000000; stroke-width: 0.8"/>
      </g>
     </g>
     <g id="text_6">
      <!-- 21 -->
      <g transform="translate(415.531552 456.364094) scale(0.1 -0.1)">
       <defs>
        <path id="DejaVuSans-32" d="M 1228 531 
L 3431 531 
L 3431 0 
L 469 0 
L 469 531 
Q 828 903 1448 1529 
Q 2069 2156 2228 2338 
Q 2531 2678 2651 2914 
Q 2772 3150 2772 3378 
Q 2772 3750 2511 3984 
Q 2250 4219 1831 4219 
Q 1534 4219 1204 4116 
Q 875 4013 500 3803 
L 500 4441 
Q 881 4594 1212 4672 
Q 1544 4750 1819 4750 
Q 2544 4750 2975 4387 
Q 3406 4025 3406 3419 
Q 3406 3131 3298 2873 
Q 3191 2616 2906 2266 
Q 2828 2175 2409 1742 
Q 1991 1309 1228 531 
z
" transform="scale(0.015625)"/>
       </defs>
       <use xlink:href="#DejaVuSans-32"/>
       <use xlink:href="#DejaVuSans-31" transform="translate(63.623047 0)"/>
      </g>
     </g>
    </g>
    <g id="xtick_7">
     <g id="line2d_13">
      <path d="M 494.915988 441.765656 
L 494.915988 42.597656 
" clip-path="url(#pdf4b5997ff)" style="fill: none; stroke: #e5e7eb; stroke-width: 0.9; stroke-linecap: square"/>
     </g>
     <g id="line2d_14">
      <g>
       <use xlink:href="#m70ca6702f7" x="494.915988" y="441.765656" style="stroke: #000000; stroke-width: 0.8"/>
      </g>
     </g>
     <g id="text_7">
      <!-- 25 -->
      <g transform="translate(488.553488 456.364094) scale(0.1 -0.1)">
       <use xlink:href="#DejaVuSans-32"/>
       <use xlink:href="#DejaVuSans-35" transform="translate(63.623047 0)"/>
      </g>
     </g>
    </g>
    <g id="xtick_8">
     <g id="line2d_15">
      <path d="M 567.937923 441.765656 
L 567.937923 42.597656 
" clip-path="url(#pdf4b5997ff)" style="fill: none; stroke: #e5e7eb; stroke-width: 0.9; stroke-linecap: square"/>
     </g>
     <g id="line2d_16">
      <g>
       <use xlink:href="#m70ca6702f7" x="567.937923" y="441.765656" style="stroke: #000000; stroke-width: 0.8"/>
      </g>
     </g>
     <g id="text_8">
      <!-- 29 -->
      <g transform="translate(561.575423 456.364094) scale(0.1 -0.1)">
       <use xlink:href="#DejaVuSans-32"/>
       <use xlink:href="#DejaVuSans-39" transform="translate(63.623047 0)"/>
      </g>
     </g>
    </g>
    <g id="xtick_9">
     <g id="line2d_17">
      <path d="M 622.704375 441.765656 
L 622.704375 42.597656 
" clip-path="url(#pdf4b5997ff)" style="fill: none; stroke: #e5e7eb; stroke-width: 0.9; stroke-linecap: square"/>
     </g>
     <g id="line2d_18">
      <g>
       <use xlink:href="#m70ca6702f7" x="622.704375" y="441.765656" style="stroke: #000000; stroke-width: 0.8"/>
      </g>
     </g>
     <g id="text_9">
      <!-- 32 -->
      <g transform="translate(616.341875 456.364094) scale(0.1 -0.1)">
       <use xlink:href="#DejaVuSans-33"/>
       <use xlink:href="#DejaVuSans-32" transform="translate(63.623047 0)"/>
      </g>
     </g>
    </g>
    <g id="text_10">
     <!-- Layer -->
     <g transform="translate(325.802969 470.042219) scale(0.1 -0.1)">
      <defs>
       <path id="DejaVuSans-4c" d="M 628 4666 
L 1259 4666 
L 1259 531 
L 3531 531 
L 3531 0 
L 628 0 
L 628 4666 
z
" transform="scale(0.015625)"/>
       <path id="DejaVuSans-61" d="M 2194 1759 
Q 1497 1759 1228 1600 
Q 959 1441 959 1056 
Q 959 750 1161 570 
Q 1363 391 1709 391 
Q 2188 391 2477 730 
Q 2766 1069 2766 1631 
L 2766 1759 
L 2194 1759 
z
M 3341 1997 
L 3341 0 
L 2766 0 
L 2766 531 
Q 2569 213 2275 61 
Q 1981 -91 1556 -91 
Q 1019 -91 701 211 
Q 384 513 384 1019 
Q 384 1609 779 1909 
Q 1175 2209 1959 2209 
L 2766 2209 
L 2766 2266 
Q 2766 2663 2505 2880 
Q 2244 3097 1772 3097 
Q 1472 3097 1187 3025 
Q 903 2953 641 2809 
L 641 3341 
Q 956 3463 1253 3523 
Q 1550 3584 1831 3584 
Q 2591 3584 2966 3190 
Q 3341 2797 3341 1997 
z
" transform="scale(0.015625)"/>
       <path id="DejaVuSans-79" d="M 2059 -325 
Q 1816 -950 1584 -1140 
Q 1353 -1331 966 -1331 
L 506 -1331 
L 506 -850 
L 844 -850 
Q 1081 -850 1212 -737 
Q 1344 -625 1503 -206 
L 1606 56 
L 191 3500 
L 800 3500 
L 1894 763 
L 2988 3500 
L 3597 3500 
L 2059 -325 
z
" transform="scale(0.015625)"/>
       <path id="DejaVuSans-65" d="M 3597 1894 
L 3597 1613 
L 953 1613 
Q 991 1019 1311 708 
Q 1631 397 2203 397 
Q 2534 397 2845 478 
Q 3156 559 3463 722 
L 3463 178 
Q 3153 47 2828 -22 
Q 2503 -91 2169 -91 
Q 1331 -91 842 396 
Q 353 884 353 1716 
Q 353 2575 817 3079 
Q 1281 3584 2069 3584 
Q 2775 3584 3186 3129 
Q 3597 2675 3597 1894 
z
M 3022 2063 
Q 3016 2534 2758 2815 
Q 2500 3097 2075 3097 
Q 1594 3097 1305 2825 
Q 1016 2553 972 2059 
L 3022 2063 
z
" transform="scale(0.015625)"/>
       <path id="DejaVuSans-72" d="M 2631 2963 
Q 2534 3019 2420 3045 
Q 2306 3072 2169 3072 
Q 1681 3072 1420 2755 
Q 1159 2438 1159 1844 
L 1159 0 
L 581 0 
L 581 3500 
L 1159 3500 
L 1159 2956 
Q 1341 3275 1631 3429 
Q 1922 3584 2338 3584 
Q 2397 3584 2469 3576 
Q 2541 3569 2628 3553 
L 2631 2963 
z
" transform="scale(0.015625)"/>
      </defs>
      <use xlink:href="#DejaVuSans-4c"/>
      <use xlink:href="#DejaVuSans-61" transform="translate(55.712891 0)"/>
      <use xlink:href="#DejaVuSans-79" transform="translate(116.992188 0)"/>
      <use xlink:href="#DejaVuSans-65" transform="translate(176.171875 0)"/>
      <use xlink:href="#DejaVuSans-72" transform="translate(237.695312 0)"/>
     </g>
    </g>
   </g>
   <g id="matplotlib.axis_2">
    <g id="ytick_1">
     <g id="line2d_19">
      <path d="M 56.784375 371.47645 
L 622.704375 371.47645 
" clip-path="url(#pdf4b5997ff)" style="fill: none; stroke: #e5e7eb; stroke-width: 0.9; stroke-linecap: square"/>
     </g>
     <g id="line2d_20">
      <defs>
       <path id="m06dcb53c31" d="M 0 0 
L -3.5 0 
" style="stroke: #000000; stroke-width: 0.8"/>
      </defs>
      <g>
       <use xlink:href="#m06dcb53c31" x="56.784375" y="371.47645" style="stroke: #000000; stroke-width: 0.8"/>
      </g>
     </g>
     <g id="text_11">
      <!-- -8.0M -->
      <g transform="translate(21.645313 375.275669) scale(0.1 -0.1)">
       <defs>
        <path id="DejaVuSans-2d" d="M 313 2009 
L 1997 2009 
L 1997 1497 
L 313 1497 
L 313 2009 
z
" transform="scale(0.015625)"/>
        <path id="DejaVuSans-38" d="M 2034 2216 
Q 1584 2216 1326 1975 
Q 1069 1734 1069 1313 
Q 1069 891 1326 650 
Q 1584 409 2034 409 
Q 2484 409 2743 651 
Q 3003 894 3003 1313 
Q 3003 1734 2745 1975 
Q 2488 2216 2034 2216 
z
M 1403 2484 
Q 997 2584 770 2862 
Q 544 3141 544 3541 
Q 544 4100 942 4425 
Q 1341 4750 2034 4750 
Q 2731 4750 3128 4425 
Q 3525 4100 3525 3541 
Q 3525 3141 3298 2862 
Q 3072 2584 2669 2484 
Q 3125 2378 3379 2068 
Q 3634 1759 3634 1313 
Q 3634 634 3220 271 
Q 2806 -91 2034 -91 
Q 1263 -91 848 271 
Q 434 634 434 1313 
Q 434 1759 690 2068 
Q 947 2378 1403 2484 
z
M 1172 3481 
Q 1172 3119 1398 2916 
Q 1625 2713 2034 2713 
Q 2441 2713 2670 2916 
Q 2900 3119 2900 3481 
Q 2900 3844 2670 4047 
Q 2441 4250 2034 4250 
Q 1625 4250 1398 4047 
Q 1172 3844 1172 3481 
z
" transform="scale(0.015625)"/>
        <path id="DejaVuSans-2e" d="M 684 794 
L 1344 794 
L 1344 0 
L 684 0 
L 684 794 
z
" transform="scale(0.015625)"/>
        <path id="DejaVuSans-30" d="M 2034 4250 
Q 1547 4250 1301 3770 
Q 1056 3291 1056 2328 
Q 1056 1369 1301 889 
Q 1547 409 2034 409 
Q 2525 409 2770 889 
Q 3016 1369 3016 2328 
Q 3016 3291 2770 3770 
Q 2525 4250 2034 4250 
z
M 2034 4750 
Q 2819 4750 3233 4129 
Q 3647 3509 3647 2328 
Q 3647 1150 3233 529 
Q 2819 -91 2034 -91 
Q 1250 -91 836 529 
Q 422 1150 422 2328 
Q 422 3509 836 4129 
Q 1250 4750 2034 4750 
z
" transform="scale(0.015625)"/>
        <path id="DejaVuSans-4d" d="M 628 4666 
L 1569 4666 
L 2759 1491 
L 3956 4666 
L 4897 4666 
L 4897 0 
L 4281 0 
L 4281 4097 
L 3078 897 
L 2444 897 
L 1241 4097 
L 1241 0 
L 628 0 
L 628 4666 
z
" transform="scale(0.015625)"/>
       </defs>
       <use xlink:href="#DejaVuSans-2d"/>
       <use xlink:href="#DejaVuSans-38" transform="translate(36.083984 0)"/>
       <use xlink:href="#DejaVuSans-2e" transform="translate(99.707031 0)"/>
       <use xlink:href="#DejaVuSans-30" transform="translate(131.494141 0)"/>
       <use xlink:href="#DejaVuSans-4d" transform="translate(195.117188 0)"/>
      </g>
     </g>
    </g>
    <g id="ytick_2">
     <g id="line2d_21">
      <path d="M 56.784375 294.472284 
L 622.704375 294.472284 
" clip-path="url(#pdf4b5997ff)" style="fill: none; stroke: #e5e7eb; stroke-width: 0.9; stroke-linecap: square"/>
     </g>
     <g id="line2d_22">
      <g>
       <use xlink:href="#m06dcb53c31" x="56.784375" y="294.472284" style="stroke: #000000; stroke-width: 0.8"/>
      </g>
     </g>
     <g id="text_12">
      <!-- -6.0M -->
      <g transform="translate(21.645313 298.271503) scale(0.1 -0.1)">
       <defs>
        <path id="DejaVuSans-36" d="M 2113 2584 
Q 1688 2584 1439 2293 
Q 1191 2003 1191 1497 
Q 1191 994 1439 701 
Q 1688 409 2113 409 
Q 2538 409 2786 701 
Q 3034 994 3034 1497 
Q 3034 2003 2786 2293 
Q 2538 2584 2113 2584 
z
M 3366 4563 
L 3366 3988 
Q 3128 4100 2886 4159 
Q 2644 4219 2406 4219 
Q 1781 4219 1451 3797 
Q 1122 3375 1075 2522 
Q 1259 2794 1537 2939 
Q 1816 3084 2150 3084 
Q 2853 3084 3261 2657 
Q 3669 2231 3669 1497 
Q 3669 778 3244 343 
Q 2819 -91 2113 -91 
Q 1303 -91 875 529 
Q 447 1150 447 2328 
Q 447 3434 972 4092 
Q 1497 4750 2381 4750 
Q 2619 4750 2861 4703 
Q 3103 4656 3366 4563 
z
" transform="scale(0.015625)"/>
       </defs>
       <use xlink:href="#DejaVuSans-2d"/>
       <use xlink:href="#DejaVuSans-36" transform="translate(36.083984 0)"/>
       <use xlink:href="#DejaVuSans-2e" transform="translate(99.707031 0)"/>
       <use xlink:href="#DejaVuSans-30" transform="translate(131.494141 0)"/>
       <use xlink:href="#DejaVuSans-4d" transform="translate(195.117188 0)"/>
      </g>
     </g>
    </g>
    <g id="ytick_3">
     <g id="line2d_23">
      <path d="M 56.784375 217.468118 
L 622.704375 217.468118 
" clip-path="url(#pdf4b5997ff)" style="fill: none; stroke: #e5e7eb; stroke-width: 0.9; stroke-linecap: square"/>
     </g>
     <g id="line2d_24">
      <g>
       <use xlink:href="#m06dcb53c31" x="56.784375" y="217.468118" style="stroke: #000000; stroke-width: 0.8"/>
      </g>
     </g>
     <g id="text_13">
      <!-- -4.0M -->
      <g transform="translate(21.645313 221.267336) scale(0.1 -0.1)">
       <defs>
        <path id="DejaVuSans-34" d="M 2419 4116 
L 825 1625 
L 2419 1625 
L 2419 4116 
z
M 2253 4666 
L 3047 4666 
L 3047 1625 
L 3713 1625 
L 3713 1100 
L 3047 1100 
L 3047 0 
L 2419 0 
L 2419 1100 
L 313 1100 
L 313 1709 
L 2253 4666 
z
" transform="scale(0.015625)"/>
       </defs>
       <use xlink:href="#DejaVuSans-2d"/>
       <use xlink:href="#DejaVuSans-34" transform="translate(36.083984 0)"/>
       <use xlink:href="#DejaVuSans-2e" transform="translate(99.707031 0)"/>
       <use xlink:href="#DejaVuSans-30" transform="translate(131.494141 0)"/>
       <use xlink:href="#DejaVuSans-4d" transform="translate(195.117188 0)"/>
      </g>
     </g>
    </g>
    <g id="ytick_4">
     <g id="line2d_25">
      <path d="M 56.784375 140.463951 
L 622.704375 140.463951 
" clip-path="url(#pdf4b5997ff)" style="fill: none; stroke: #e5e7eb; stroke-width: 0.9; stroke-linecap: square"/>
     </g>
     <g id="line2d_26">
      <g>
       <use xlink:href="#m06dcb53c31" x="56.784375" y="140.463951" style="stroke: #000000; stroke-width: 0.8"/>
      </g>
     </g>
     <g id="text_14">
      <!-- -2.0M -->
      <g transform="translate(21.645313 144.26317) scale(0.1 -0.1)">
       <use xlink:href="#DejaVuSans-2d"/>
       <use xlink:href="#DejaVuSans-32" transform="translate(36.083984 0)"/>
       <use xlink:href="#DejaVuSans-2e" transform="translate(99.707031 0)"/>
       <use xlink:href="#DejaVuSans-30" transform="translate(131.494141 0)"/>
       <use xlink:href="#DejaVuSans-4d" transform="translate(195.117188 0)"/>
      </g>
     </g>
    </g>
    <g id="ytick_5">
     <g id="line2d_27">
      <path d="M 56.784375 63.459785 
L 622.704375 63.459785 
" clip-path="url(#pdf4b5997ff)" style="fill: none; stroke: #e5e7eb; stroke-width: 0.9; stroke-linecap: square"/>
     </g>
     <g id="line2d_28">
      <g>
       <use xlink:href="#m06dcb53c31" x="56.784375" y="63.459785" style="stroke: #000000; stroke-width: 0.8"/>
      </g>
     </g>
     <g id="text_15">
      <!-- 0.000 -->
      <g transform="translate(21.15625 67.259004) scale(0.1 -0.1)">
       <use xlink:href="#DejaVuSans-30"/>
       <use xlink:href="#DejaVuSans-2e" transform="translate(63.623047 0)"/>
       <use xlink:href="#DejaVuSans-30" transform="translate(95.410156 0)"/>
       <use xlink:href="#DejaVuSans-30" transform="translate(159.033203 0)"/>
       <use xlink:href="#DejaVuSans-30" transform="translate(222.65625 0)"/>
      </g>
     </g>
    </g>
    <g id="text_16">
     <!-- shapley_value -->
     <g transform="translate(14.798438 277.776187) rotate(-90) scale(0.1 -0.1)">
      <defs>
       <path id="DejaVuSans-73" d="M 2834 3397 
L 2834 2853 
Q 2591 2978 2328 3040 
Q 2066 3103 1784 3103 
Q 1356 3103 1142 2972 
Q 928 2841 928 2578 
Q 928 2378 1081 2264 
Q 1234 2150 1697 2047 
L 1894 2003 
Q 2506 1872 2764 1633 
Q 3022 1394 3022 966 
Q 3022 478 2636 193 
Q 2250 -91 1575 -91 
Q 1294 -91 989 -36 
Q 684 19 347 128 
L 347 722 
Q 666 556 975 473 
Q 1284 391 1588 391 
Q 1994 391 2212 530 
Q 2431 669 2431 922 
Q 2431 1156 2273 1281 
Q 2116 1406 1581 1522 
L 1381 1569 
Q 847 1681 609 1914 
Q 372 2147 372 2553 
Q 372 3047 722 3315 
Q 1072 3584 1716 3584 
Q 2034 3584 2315 3537 
Q 2597 3491 2834 3397 
z
" transform="scale(0.015625)"/>
       <path id="DejaVuSans-68" d="M 3513 2113 
L 3513 0 
L 2938 0 
L 2938 2094 
Q 2938 2591 2744 2837 
Q 2550 3084 2163 3084 
Q 1697 3084 1428 2787 
Q 1159 2491 1159 1978 
L 1159 0 
L 581 0 
L 581 4863 
L 1159 4863 
L 1159 2956 
Q 1366 3272 1645 3428 
Q 1925 3584 2291 3584 
Q 2894 3584 3203 3211 
Q 3513 2838 3513 2113 
z
" transform="scale(0.015625)"/>
       <path id="DejaVuSans-70" d="M 1159 525 
L 1159 -1331 
L 581 -1331 
L 581 3500 
L 1159 3500 
L 1159 2969 
Q 1341 3281 1617 3432 
Q 1894 3584 2278 3584 
Q 2916 3584 3314 3078 
Q 3713 2572 3713 1747 
Q 3713 922 3314 415 
Q 2916 -91 2278 -91 
Q 1894 -91 1617 61 
Q 1341 213 1159 525 
z
M 3116 1747 
Q 3116 2381 2855 2742 
Q 2594 3103 2138 3103 
Q 1681 3103 1420 2742 
Q 1159 2381 1159 1747 
Q 1159 1113 1420 752 
Q 1681 391 2138 391 
Q 2594 391 2855 752 
Q 3116 1113 3116 1747 
z
" transform="scale(0.015625)"/>
       <path id="DejaVuSans-6c" d="M 603 4863 
L 1178 4863 
L 1178 0 
L 603 0 
L 603 4863 
z
" transform="scale(0.015625)"/>
       <path id="DejaVuSans-5f" d="M 3263 -1063 
L 3263 -1509 
L -63 -1509 
L -63 -1063 
L 3263 -1063 
z
" transform="scale(0.015625)"/>
       <path id="DejaVuSans-76" d="M 191 3500 
L 800 3500 
L 1894 563 
L 2988 3500 
L 3597 3500 
L 2284 0 
L 1503 0 
L 191 3500 
z
" transform="scale(0.015625)"/>
       <path id="DejaVuSans-75" d="M 544 1381 
L 544 3500 
L 1119 3500 
L 1119 1403 
Q 1119 906 1312 657 
Q 1506 409 1894 409 
Q 2359 409 2629 706 
Q 2900 1003 2900 1516 
L 2900 3500 
L 3475 3500 
L 3475 0 
L 2900 0 
L 2900 538 
Q 2691 219 2414 64 
Q 2138 -91 1772 -91 
Q 1169 -91 856 284 
Q 544 659 544 1381 
z
M 1991 3584 
L 1991 3584 
z
" transform="scale(0.015625)"/>
      </defs>
      <use xlink:href="#DejaVuSans-73"/>
      <use xlink:href="#DejaVuSans-68" transform="translate(52.099609 0)"/>
      <use xlink:href="#DejaVuSans-61" transform="translate(115.478516 0)"/>
      <use xlink:href="#DejaVuSans-70" transform="translate(176.757812 0)"/>
      <use xlink:href="#DejaVuSans-6c" transform="translate(240.234375 0)"/>
      <use xlink:href="#DejaVuSans-65" transform="translate(268.017578 0)"/>
      <use xlink:href="#DejaVuSans-79" transform="translate(329.541016 0)"/>
      <use xlink:href="#DejaVuSans-5f" transform="translate(388.720703 0)"/>
      <use xlink:href="#DejaVuSans-76" transform="translate(438.720703 0)"/>
      <use xlink:href="#DejaVuSans-61" transform="translate(497.900391 0)"/>
      <use xlink:href="#DejaVuSans-6c" transform="translate(559.179688 0)"/>
      <use xlink:href="#DejaVuSans-75" transform="translate(586.962891 0)"/>
      <use xlink:href="#DejaVuSans-65" transform="translate(650.341797 0)"/>
     </g>
    </g>
   </g>
   <g id="line2d_29">
    <path d="M 56.784375 81.971475 
L 75.039859 414.309382 
L 93.295343 71.483819 
L 111.550827 72.056869 
L 129.80631 75.644399 
L 148.061794 77.860288 
L 166.317278 79.925083 
L 184.572762 82.880076 
L 202.828246 85.171306 
L 221.08373 89.00482 
L 239.339214 88.516666 
L 257.594698 88.628245 
L 275.850181 85.342769 
L 294.105665 80.960718 
L 312.361149 76.917524 
L 330.616633 73.915294 
L 348.872117 70.19013 
L 367.127601 68.497702 
L 385.383085 66.781969 
L 403.638569 66.356508 
L 421.894052 66.029221 
L 440.149536 65.70519 
L 458.40502 65.291815 
L 476.660504 64.804072 
L 494.915988 64.829715 
L 513.171472 64.782875 
L 531.426956 64.967196 
L 549.68244 65.161008 
L 567.937923 65.263041 
L 586.193407 66.430081 
L 604.448891 68.593715 
L 622.704375 84.945418 
" clip-path="url(#pdf4b5997ff)" style="fill: none; stroke: #2563eb; stroke-width: 2.2; stroke-linecap: square"/>
    <defs>
     <path id="m7f07b0780a" d="M 0 2 
C 0.530406 2 1.03916 1.789267 1.414214 1.414214 
C 1.789267 1.03916 2 0.530406 2 0 
C 2 -0.530406 1.789267 -1.03916 1.414214 -1.414214 
C 1.03916 -1.789267 0.530406 -2 0 -2 
C -0.530406 -2 -1.03916 -1.789267 -1.414214 -1.414214 
C -1.789267 -1.03916 -2 -0.530406 -2 0 
C -2 0.530406 -1.789267 1.03916 -1.414214 1.414214 
C -1.03916 1.789267 -0.530406 2 0 2 
z
" style="stroke: #2563eb"/>
    </defs>
    <g clip-path="url(#pdf4b5997ff)">
     <use xlink:href="#m7f07b0780a" x="56.784375" y="81.971475" style="fill: #2563eb; stroke: #2563eb"/>
     <use xlink:href="#m7f07b0780a" x="75.039859" y="414.309382" style="fill: #2563eb; stroke: #2563eb"/>
     <use xlink:href="#m7f07b0780a" x="93.295343" y="71.483819" style="fill: #2563eb; stroke: #2563eb"/>
     <use xlink:href="#m7f07b0780a" x="111.550827" y="72.056869" style="fill: #2563eb; stroke: #2563eb"/>
     <use xlink:href="#m7f07b0780a" x="129.80631" y="75.644399" style="fill: #2563eb; stroke: #2563eb"/>
     <use xlink:href="#m7f07b0780a" x="148.061794" y="77.860288" style="fill: #2563eb; stroke: #2563eb"/>
     <use xlink:href="#m7f07b0780a" x="166.317278" y="79.925083" style="fill: #2563eb; stroke: #2563eb"/>
     <use xlink:href="#m7f07b0780a" x="184.572762" y="82.880076" style="fill: #2563eb; stroke: #2563eb"/>
     <use xlink:href="#m7f07b0780a" x="202.828246" y="85.171306" style="fill: #2563eb; stroke: #2563eb"/>
     <use xlink:href="#m7f07b0780a" x="221.08373" y="89.00482" style="fill: #2563eb; stroke: #2563eb"/>
     <use xlink:href="#m7f07b0780a" x="239.339214" y="88.516666" style="fill: #2563eb; stroke: #2563eb"/>
     <use xlink:href="#m7f07b0780a" x="257.594698" y="88.628245" style="fill: #2563eb; stroke: #2563eb"/>
     <use xlink:href="#m7f07b0780a" x="275.850181" y="85.342769" style="fill: #2563eb; stroke: #2563eb"/>
     <use xlink:href="#m7f07b0780a" x="294.105665" y="80.960718" style="fill: #2563eb; stroke: #2563eb"/>
     <use xlink:href="#m7f07b0780a" x="312.361149" y="76.917524" style="fill: #2563eb; stroke: #2563eb"/>
     <use xlink:href="#m7f07b0780a" x="330.616633" y="73.915294" style="fill: #2563eb; stroke: #2563eb"/>
     <use xlink:href="#m7f07b0780a" x="348.872117" y="70.19013" style="fill: #2563eb; stroke: #2563eb"/>
     <use xlink:href="#m7f07b0780a" x="367.127601" y="68.497702" style="fill: #2563eb; stroke: #2563eb"/>
     <use xlink:href="#m7f07b0780a" x="385.383085" y="66.781969" style="fill: #2563eb; stroke: #2563eb"/>
     <use xlink:href="#m7f07b0780a" x="403.638569" y="66.356508" style="fill: #2563eb; stroke: #2563eb"/>
     <use xlink:href="#m7f07b0780a" x="421.894052" y="66.029221" style="fill: #2563eb; stroke: #2563eb"/>
     <use xlink:href="#m7f07b0780a" x="440.149536" y="65.70519" style="fill: #2563eb; stroke: #2563eb"/>
     <use xlink:href="#m7f07b0780a" x="458.40502" y="65.291815" style="fill: #2563eb; stroke: #2563eb"/>
     <use xlink:href="#m7f07b0780a" x="476.660504" y="64.804072" style="fill: #2563eb; stroke: #2563eb"/>
     <use xlink:href="#m7f07b0780a" x="494.915988" y="64.829715" style="fill: #2563eb; stroke: #2563eb"/>
     <use xlink:href="#m7f07b0780a" x="513.171472" y="64.782875" style="fill: #2563eb; stroke: #2563eb"/>
     <use xlink:href="#m7f07b0780a" x="531.426956" y="64.967196" style="fill: #2563eb; stroke: #2563eb"/>
     <use xlink:href="#m7f07b0780a" x="549.68244" y="65.161008" style="fill: #2563eb; stroke: #2563eb"/>
     <use xlink:href="#m7f07b0780a" x="567.937923" y="65.263041" style="fill: #2563eb; stroke: #2563eb"/>
     <use xlink:href="#m7f07b0780a" x="586.193407" y="66.430081" style="fill: #2563eb; stroke: #2563eb"/>
     <use xlink:href="#m7f07b0780a" x="604.448891" y="68.593715" style="fill: #2563eb; stroke: #2563eb"/>
     <use xlink:href="#m7f07b0780a" x="622.704375" y="84.945418" style="fill: #2563eb; stroke: #2563eb"/>
    </g>
   </g>
   <g id="line2d_30">
    <path d="M 56.784375 80.945302 
L 75.039859 420.381656 
L 93.295343 71.86691 
L 111.550827 71.403372 
L 129.80631 73.383441 
L 148.061794 73.946352 
L 166.317278 74.397268 
L 184.572762 74.835735 
L 202.828246 75.58984 
L 221.08373 77.365048 
L 239.339214 76.051225 
L 257.594698 76.780269 
L 275.850181 77.843592 
L 294.105665 79.187794 
L 312.361149 77.828451 
L 330.616633 78.57069 
L 348.872117 74.978345 
L 367.127601 73.636092 
L 385.383085 71.00572 
L 403.638569 70.317393 
L 421.894052 69.054369 
L 440.149536 68.574052 
L 458.40502 67.862613 
L 476.660504 66.73912 
L 494.915988 66.97056 
L 513.171472 66.244284 
L 531.426956 66.323843 
L 549.68244 65.812962 
L 567.937923 65.467001 
L 586.193407 65.826361 
L 604.448891 66.923721 
L 622.704375 74.225384 
" clip-path="url(#pdf4b5997ff)" style="fill: none; stroke: #dc2626; stroke-width: 2.2; stroke-linecap: square"/>
    <defs>
     <path id="ma6ea38555d" d="M 0 2 
C 0.530406 2 1.03916 1.789267 1.414214 1.414214 
C 1.789267 1.03916 2 0.530406 2 0 
C 2 -0.530406 1.789267 -1.03916 1.414214 -1.414214 
C 1.03916 -1.789267 0.530406 -2 0 -2 
C -0.530406 -2 -1.03916 -1.789267 -1.414214 -1.414214 
C -1.789267 -1.03916 -2 -0.530406 -2 0 
C -2 0.530406 -1.789267 1.03916 -1.414214 1.414214 
C -1.03916 1.789267 -0.530406 2 0 2 
z
" style="stroke: #dc2626"/>
    </defs>
    <g clip-path="url(#pdf4b5997ff)">
     <use xlink:href="#ma6ea38555d" x="56.784375" y="80.945302" style="fill: #dc2626; stroke: #dc2626"/>
     <use xlink:href="#ma6ea38555d" x="75.039859" y="420.381656" style="fill: #dc2626; stroke: #dc2626"/>
     <use xlink:href="#ma6ea38555d" x="93.295343" y="71.86691" style="fill: #dc2626; stroke: #dc2626"/>
     <use xlink:href="#ma6ea38555d" x="111.550827" y="71.403372" style="fill: #dc2626; stroke: #dc2626"/>
     <use xlink:href="#ma6ea38555d" x="129.80631" y="73.383441" style="fill: #dc2626; stroke: #dc2626"/>
     <use xlink:href="#ma6ea38555d" x="148.061794" y="73.946352" style="fill: #dc2626; stroke: #dc2626"/>
     <use xlink:href="#ma6ea38555d" x="166.317278" y="74.397268" style="fill: #dc2626; stroke: #dc2626"/>
     <use xlink:href="#ma6ea38555d" x="184.572762" y="74.835735" style="fill: #dc2626; stroke: #dc2626"/>
     <use xlink:href="#ma6ea38555d" x="202.828246" y="75.58984" style="fill: #dc2626; stroke: #dc2626"/>
     <use xlink:href="#ma6ea38555d" x="221.08373" y="77.365048" style="fill: #dc2626; stroke: #dc2626"/>
     <use xlink:href="#ma6ea38555d" x="239.339214" y="76.051225" style="fill: #dc2626; stroke: #dc2626"/>
     <use xlink:href="#ma6ea38555d" x="257.594698" y="76.780269" style="fill: #dc2626; stroke: #dc2626"/>
     <use xlink:href="#ma6ea38555d" x="275.850181" y="77.843592" style="fill: #dc2626; stroke: #dc2626"/>
     <use xlink:href="#ma6ea38555d" x="294.105665" y="79.187794" style="fill: #dc2626; stroke: #dc2626"/>
     <use xlink:href="#ma6ea38555d" x="312.361149" y="77.828451" style="fill: #dc2626; stroke: #dc2626"/>
     <use xlink:href="#ma6ea38555d" x="330.616633" y="78.57069" style="fill: #dc2626; stroke: #dc2626"/>
     <use xlink:href="#ma6ea38555d" x="348.872117" y="74.978345" style="fill: #dc2626; stroke: #dc2626"/>
     <use xlink:href="#ma6ea38555d" x="367.127601" y="73.636092" style="fill: #dc2626; stroke: #dc2626"/>
     <use xlink:href="#ma6ea38555d" x="385.383085" y="71.00572" style="fill: #dc2626; stroke: #dc2626"/>
     <use xlink:href="#ma6ea38555d" x="403.638569" y="70.317393" style="fill: #dc2626; stroke: #dc2626"/>
     <use xlink:href="#ma6ea38555d" x="421.894052" y="69.054369" style="fill: #dc2626; stroke: #dc2626"/>
     <use xlink:href="#ma6ea38555d" x="440.149536" y="68.574052" style="fill: #dc2626; stroke: #dc2626"/>
     <use xlink:href="#ma6ea38555d" x="458.40502" y="67.862613" style="fill: #dc2626; stroke: #dc2626"/>
     <use xlink:href="#ma6ea38555d" x="476.660504" y="66.73912" style="fill: #dc2626; stroke: #dc2626"/>
     <use xlink:href="#ma6ea38555d" x="494.915988" y="66.97056" style="fill: #dc2626; stroke: #dc2626"/>
     <use xlink:href="#ma6ea38555d" x="513.171472" y="66.244284" style="fill: #dc2626; stroke: #dc2626"/>
     <use xlink:href="#ma6ea38555d" x="531.426956" y="66.323843" style="fill: #dc2626; stroke: #dc2626"/>
     <use xlink:href="#ma6ea38555d" x="549.68244" y="65.812962" style="fill: #dc2626; stroke: #dc2626"/>
     <use xlink:href="#ma6ea38555d" x="567.937923" y="65.467001" style="fill: #dc2626; stroke: #dc2626"/>
     <use xlink:href="#ma6ea38555d" x="586.193407" y="65.826361" style="fill: #dc2626; stroke: #dc2626"/>
     <use xlink:href="#ma6ea38555d" x="604.448891" y="66.923721" style="fill: #dc2626; stroke: #dc2626"/>
     <use xlink:href="#ma6ea38555d" x="622.704375" y="74.225384" style="fill: #dc2626; stroke: #dc2626"/>
    </g>
   </g>
   <g id="line2d_31">
    <path d="M 56.784375 73.197204 
L 75.039859 279.041334 
L 93.295343 67.70088 
L 111.550827 68.708567 
L 129.80631 69.950081 
L 148.061794 70.787609 
L 166.317278 71.187137 
L 184.572762 72.043111 
L 202.828246 72.383226 
L 221.08373 72.590475 
L 239.339214 70.867705 
L 257.594698 73.355036 
L 275.850181 73.731813 
L 294.105665 73.450463 
L 312.361149 71.597493 
L 330.616633 70.178848 
L 348.872117 67.977556 
L 367.127601 67.305894 
L 385.383085 66.495016 
L 403.638569 65.855184 
L 421.894052 65.769332 
L 440.149536 65.510114 
L 458.40502 65.370514 
L 476.660504 65.025157 
L 494.915988 65.07532 
L 513.171472 64.991593 
L 531.426956 65.294432 
L 549.68244 65.233001 
L 567.937923 65.538208 
L 586.193407 67.334885 
L 604.448891 69.226641 
L 622.704375 65.471787 
" clip-path="url(#pdf4b5997ff)" style="fill: none; stroke: #16a34a; stroke-width: 2.2; stroke-linecap: square"/>
    <defs>
     <path id="m10777e00b2" d="M 0 2 
C 0.530406 2 1.03916 1.789267 1.414214 1.414214 
C 1.789267 1.03916 2 0.530406 2 0 
C 2 -0.530406 1.789267 -1.03916 1.414214 -1.414214 
C 1.03916 -1.789267 0.530406 -2 0 -2 
C -0.530406 -2 -1.03916 -1.789267 -1.414214 -1.414214 
C -1.789267 -1.03916 -2 -0.530406 -2 0 
C -2 0.530406 -1.789267 1.03916 -1.414214 1.414214 
C -1.03916 1.789267 -0.530406 2 0 2 
z
" style="stroke: #16a34a"/>
    </defs>
    <g clip-path="url(#pdf4b5997ff)">
     <use xlink:href="#m10777e00b2" x="56.784375" y="73.197204" style="fill: #16a34a; stroke: #16a34a"/>
     <use xlink:href="#m10777e00b2" x="75.039859" y="279.041334" style="fill: #16a34a; stroke: #16a34a"/>
     <use xlink:href="#m10777e00b2" x="93.295343" y="67.70088" style="fill: #16a34a; stroke: #16a34a"/>
     <use xlink:href="#m10777e00b2" x="111.550827" y="68.708567" style="fill: #16a34a; stroke: #16a34a"/>
     <use xlink:href="#m10777e00b2" x="129.80631" y="69.950081" style="fill: #16a34a; stroke: #16a34a"/>
     <use xlink:href="#m10777e00b2" x="148.061794" y="70.787609" style="fill: #16a34a; stroke: #16a34a"/>
     <use xlink:href="#m10777e00b2" x="166.317278" y="71.187137" style="fill: #16a34a; stroke: #16a34a"/>
     <use xlink:href="#m10777e00b2" x="184.572762" y="72.043111" style="fill: #16a34a; stroke: #16a34a"/>
     <use xlink:href="#m10777e00b2" x="202.828246" y="72.383226" style="fill: #16a34a; stroke: #16a34a"/>
     <use xlink:href="#m10777e00b2" x="221.08373" y="72.590475" style="fill: #16a34a; stroke: #16a34a"/>
     <use xlink:href="#m10777e00b2" x="239.339214" y="70.867705" style="fill: #16a34a; stroke: #16a34a"/>
     <use xlink:href="#m10777e00b2" x="257.594698" y="73.355036" style="fill: #16a34a; stroke: #16a34a"/>
     <use xlink:href="#m10777e00b2" x="275.850181" y="73.731813" style="fill: #16a34a; stroke: #16a34a"/>
     <use xlink:href="#m10777e00b2" x="294.105665" y="73.450463" style="fill: #16a34a; stroke: #16a34a"/>
     <use xlink:href="#m10777e00b2" x="312.361149" y="71.597493" style="fill: #16a34a; stroke: #16a34a"/>
     <use xlink:href="#m10777e00b2" x="330.616633" y="70.178848" style="fill: #16a34a; stroke: #16a34a"/>
     <use xlink:href="#m10777e00b2" x="348.872117" y="67.977556" style="fill: #16a34a; stroke: #16a34a"/>
     <use xlink:href="#m10777e00b2" x="367.127601" y="67.305894" style="fill: #16a34a; stroke: #16a34a"/>
     <use xlink:href="#m10777e00b2" x="385.383085" y="66.495016" style="fill: #16a34a; stroke: #16a34a"/>
     <use xlink:href="#m10777e00b2" x="403.638569" y="65.855184" style="fill: #16a34a; stroke: #16a34a"/>
     <use xlink:href="#m10777e00b2" x="421.894052" y="65.769332" style="fill: #16a34a; stroke: #16a34a"/>
     <use xlink:href="#m10777e00b2" x="440.149536" y="65.510114" style="fill: #16a34a; stroke: #16a34a"/>
     <use xlink:href="#m10777e00b2" x="458.40502" y="65.370514" style="fill: #16a34a; stroke: #16a34a"/>
     <use xlink:href="#m10777e00b2" x="476.660504" y="65.025157" style="fill: #16a34a; stroke: #16a34a"/>
     <use xlink:href="#m10777e00b2" x="494.915988" y="65.07532" style="fill: #16a34a; stroke: #16a34a"/>
     <use xlink:href="#m10777e00b2" x="513.171472" y="64.991593" style="fill: #16a34a; stroke: #16a34a"/>
     <use xlink:href="#m10777e00b2" x="531.426956" y="65.294432" style="fill: #16a34a; stroke: #16a34a"/>
     <use xlink:href="#m10777e00b2" x="549.68244" y="65.233001" style="fill: #16a34a; stroke: #16a34a"/>
     <use xlink:href="#m10777e00b2" x="567.937923" y="65.538208" style="fill: #16a34a; stroke: #16a34a"/>
     <use xlink:href="#m10777e00b2" x="586.193407" y="67.334885" style="fill: #16a34a; stroke: #16a34a"/>
     <use xlink:href="#m10777e00b2" x="604.448891" y="69.226641" style="fill: #16a34a; stroke: #16a34a"/>
     <use xlink:href="#m10777e00b2" x="622.704375" y="65.471787" style="fill: #16a34a; stroke: #16a34a"/>
    </g>
   </g>
   <g id="line2d_32">
    <path d="M 56.784375 70.7341 
L 75.039859 212.038756 
L 93.295343 67.004761 
L 111.550827 67.586683 
L 129.80631 68.475196 
L 148.061794 68.823853 
L 166.317278 69.764979 
L 184.572762 70.143042 
L 202.828246 70.350669 
L 221.08373 71.086866 
L 239.339214 70.302994 
L 257.594698 70.988359 
L 275.850181 70.223426 
L 294.105665 69.994175 
L 312.361149 67.963858 
L 330.616633 67.036553 
L 348.872117 65.978531 
L 367.127601 65.327962 
L 385.383085 64.886254 
L 403.638569 64.656333 
L 421.894052 64.496393 
L 440.149536 64.469791 
L 458.40502 64.205092 
L 476.660504 64.012262 
L 494.915988 64.020745 
L 513.171472 64.011045 
L 531.426956 63.981656 
L 549.68244 64.013534 
L 567.937923 64.040445 
L 586.193407 64.149914 
L 604.448891 64.64781 
L 622.704375 68.066968 
" clip-path="url(#pdf4b5997ff)" style="fill: none; stroke: #9333ea; stroke-width: 2.2; stroke-linecap: square"/>
    <defs>
     <path id="m48aa4144c2" d="M 0 2 
C 0.530406 2 1.03916 1.789267 1.414214 1.414214 
C 1.789267 1.03916 2 0.530406 2 0 
C 2 -0.530406 1.789267 -1.03916 1.414214 -1.414214 
C 1.03916 -1.789267 0.530406 -2 0 -2 
C -0.530406 -2 -1.03916 -1.789267 -1.414214 -1.414214 
C -1.789267 -1.03916 -2 -0.530406 -2 0 
C -2 0.530406 -1.789267 1.03916 -1.414214 1.414214 
C -1.03916 1.789267 -0.530406 2 0 2 
z
" style="stroke: #9333ea"/>
    </defs>
    <g clip-path="url(#pdf4b5997ff)">
     <use xlink:href="#m48aa4144c2" x="56.784375" y="70.7341" style="fill: #9333ea; stroke: #9333ea"/>
     <use xlink:href="#m48aa4144c2" x="75.039859" y="212.038756" style="fill: #9333ea; stroke: #9333ea"/>
     <use xlink:href="#m48aa4144c2" x="93.295343" y="67.004761" style="fill: #9333ea; stroke: #9333ea"/>
     <use xlink:href="#m48aa4144c2" x="111.550827" y="67.586683" style="fill: #9333ea; stroke: #9333ea"/>
     <use xlink:href="#m48aa4144c2" x="129.80631" y="68.475196" style="fill: #9333ea; stroke: #9333ea"/>
     <use xlink:href="#m48aa4144c2" x="148.061794" y="68.823853" style="fill: #9333ea; stroke: #9333ea"/>
     <use xlink:href="#m48aa4144c2" x="166.317278" y="69.764979" style="fill: #9333ea; stroke: #9333ea"/>
     <use xlink:href="#m48aa4144c2" x="184.572762" y="70.143042" style="fill: #9333ea; stroke: #9333ea"/>
     <use xlink:href="#m48aa4144c2" x="202.828246" y="70.350669" style="fill: #9333ea; stroke: #9333ea"/>
     <use xlink:href="#m48aa4144c2" x="221.08373" y="71.086866" style="fill: #9333ea; stroke: #9333ea"/>
     <use xlink:href="#m48aa4144c2" x="239.339214" y="70.302994" style="fill: #9333ea; stroke: #9333ea"/>
     <use xlink:href="#m48aa4144c2" x="257.594698" y="70.988359" style="fill: #9333ea; stroke: #9333ea"/>
     <use xlink:href="#m48aa4144c2" x="275.850181" y="70.223426" style="fill: #9333ea; stroke: #9333ea"/>
     <use xlink:href="#m48aa4144c2" x="294.105665" y="69.994175" style="fill: #9333ea; stroke: #9333ea"/>
     <use xlink:href="#m48aa4144c2" x="312.361149" y="67.963858" style="fill: #9333ea; stroke: #9333ea"/>
     <use xlink:href="#m48aa4144c2" x="330.616633" y="67.036553" style="fill: #9333ea; stroke: #9333ea"/>
     <use xlink:href="#m48aa4144c2" x="348.872117" y="65.978531" style="fill: #9333ea; stroke: #9333ea"/>
     <use xlink:href="#m48aa4144c2" x="367.127601" y="65.327962" style="fill: #9333ea; stroke: #9333ea"/>
     <use xlink:href="#m48aa4144c2" x="385.383085" y="64.886254" style="fill: #9333ea; stroke: #9333ea"/>
     <use xlink:href="#m48aa4144c2" x="403.638569" y="64.656333" style="fill: #9333ea; stroke: #9333ea"/>
     <use xlink:href="#m48aa4144c2" x="421.894052" y="64.496393" style="fill: #9333ea; stroke: #9333ea"/>
     <use xlink:href="#m48aa4144c2" x="440.149536" y="64.469791" style="fill: #9333ea; stroke: #9333ea"/>
     <use xlink:href="#m48aa4144c2" x="458.40502" y="64.205092" style="fill: #9333ea; stroke: #9333ea"/>
     <use xlink:href="#m48aa4144c2" x="476.660504" y="64.012262" style="fill: #9333ea; stroke: #9333ea"/>
     <use xlink:href="#m48aa4144c2" x="494.915988" y="64.020745" style="fill: #9333ea; stroke: #9333ea"/>
     <use xlink:href="#m48aa4144c2" x="513.171472" y="64.011045" style="fill: #9333ea; stroke: #9333ea"/>
     <use xlink:href="#m48aa4144c2" x="531.426956" y="63.981656" style="fill: #9333ea; stroke: #9333ea"/>
     <use xlink:href="#m48aa4144c2" x="549.68244" y="64.013534" style="fill: #9333ea; stroke: #9333ea"/>
     <use xlink:href="#m48aa4144c2" x="567.937923" y="64.040445" style="fill: #9333ea; stroke: #9333ea"/>
     <use xlink:href="#m48aa4144c2" x="586.193407" y="64.149914" style="fill: #9333ea; stroke: #9333ea"/>
     <use xlink:href="#m48aa4144c2" x="604.448891" y="64.64781" style="fill: #9333ea; stroke: #9333ea"/>
     <use xlink:href="#m48aa4144c2" x="622.704375" y="68.066968" style="fill: #9333ea; stroke: #9333ea"/>
    </g>
   </g>
   <g id="patch_3">
    <path d="M 56.784375 441.765656 
L 56.784375 42.597656 
" style="fill: none; stroke: #000000; stroke-width: 0.8; stroke-linejoin: miter; stroke-linecap: square"/>
   </g>
   <g id="patch_4">
    <path d="M 56.784375 441.765656 
L 622.704375 441.765656 
" style="fill: none; stroke: #000000; stroke-width: 0.8; stroke-linejoin: miter; stroke-linecap: square"/>
   </g>
   <g id="text_17">
    <!-- Tasks overlaid by color; plotting raw metric values. -->
    <g style="fill: #6b7280" transform="translate(56.784375 38.605976) scale(0.09 -0.09)">
     <defs>
      <path id="DejaVuSans-54" d="M -19 4666 
L 3928 4666 
L 3928 4134 
L 2272 4134 
L 2272 0 
L 1638 0 
L 1638 4134 
L -19 4134 
L -19 4666 
z
" transform="scale(0.015625)"/>
      <path id="DejaVuSans-6b" d="M 581 4863 
L 1159 4863 
L 1159 1991 
L 2875 3500 
L 3609 3500 
L 1753 1863 
L 3688 0 
L 2938 0 
L 1159 1709 
L 1159 0 
L 581 0 
L 581 4863 
z
" transform="scale(0.015625)"/>
      <path id="DejaVuSans-20" transform="scale(0.015625)"/>
      <path id="DejaVuSans-6f" d="M 1959 3097 
Q 1497 3097 1228 2736 
Q 959 2375 959 1747 
Q 959 1119 1226 758 
Q 1494 397 1959 397 
Q 2419 397 2687 759 
Q 2956 1122 2956 1747 
Q 2956 2369 2687 2733 
Q 2419 3097 1959 3097 
z
M 1959 3584 
Q 2709 3584 3137 3096 
Q 3566 2609 3566 1747 
Q 3566 888 3137 398 
Q 2709 -91 1959 -91 
Q 1206 -91 779 398 
Q 353 888 353 1747 
Q 353 2609 779 3096 
Q 1206 3584 1959 3584 
z
" transform="scale(0.015625)"/>
      <path id="DejaVuSans-69" d="M 603 3500 
L 1178 3500 
L 1178 0 
L 603 0 
L 603 3500 
z
M 603 4863 
L 1178 4863 
L 1178 4134 
L 603 4134 
L 603 4863 
z
" transform="scale(0.015625)"/>
      <path id="DejaVuSans-64" d="M 2906 2969 
L 2906 4863 
L 3481 4863 
L 3481 0 
L 2906 0 
L 2906 525 
Q 2725 213 2448 61 
Q 2172 -91 1784 -91 
Q 1150 -91 751 415 
Q 353 922 353 1747 
Q 353 2572 751 3078 
Q 1150 3584 1784 3584 
Q 2172 3584 2448 3432 
Q 2725 3281 2906 2969 
z
M 947 1747 
Q 947 1113 1208 752 
Q 1469 391 1925 391 
Q 2381 391 2643 752 
Q 2906 1113 2906 1747 
Q 2906 2381 2643 2742 
Q 2381 3103 1925 3103 
Q 1469 3103 1208 2742 
Q 947 2381 947 1747 
z
" transform="scale(0.015625)"/>
      <path id="DejaVuSans-62" d="M 3116 1747 
Q 3116 2381 2855 2742 
Q 2594 3103 2138 3103 
Q 1681 3103 1420 2742 
Q 1159 2381 1159 1747 
Q 1159 1113 1420 752 
Q 1681 391 2138 391 
Q 2594 391 2855 752 
Q 3116 1113 3116 1747 
z
M 1159 2969 
Q 1341 3281 1617 3432 
Q 1894 3584 2278 3584 
Q 2916 3584 3314 3078 
Q 3713 2572 3713 1747 
Q 3713 922 3314 415 
Q 2916 -91 2278 -91 
Q 1894 -91 1617 61 
Q 1341 213 1159 525 
L 1159 0 
L 581 0 
L 581 4863 
L 1159 4863 
L 1159 2969 
z
" transform="scale(0.015625)"/>
      <path id="DejaVuSans-63" d="M 3122 3366 
L 3122 2828 
Q 2878 2963 2633 3030 
Q 2388 3097 2138 3097 
Q 1578 3097 1268 2742 
Q 959 2388 959 1747 
Q 959 1106 1268 751 
Q 1578 397 2138 397 
Q 2388 397 2633 464 
Q 2878 531 3122 666 
L 3122 134 
Q 2881 22 2623 -34 
Q 2366 -91 2075 -91 
Q 1284 -91 818 406 
Q 353 903 353 1747 
Q 353 2603 823 3093 
Q 1294 3584 2113 3584 
Q 2378 3584 2631 3529 
Q 2884 3475 3122 3366 
z
" transform="scale(0.015625)"/>
      <path id="DejaVuSans-3b" d="M 750 3309 
L 1409 3309 
L 1409 2516 
L 750 2516 
L 750 3309 
z
M 750 794 
L 1409 794 
L 1409 256 
L 897 -744 
L 494 -744 
L 750 256 
L 750 794 
z
" transform="scale(0.015625)"/>
      <path id="DejaVuSans-74" d="M 1172 4494 
L 1172 3500 
L 2356 3500 
L 2356 3053 
L 1172 3053 
L 1172 1153 
Q 1172 725 1289 603 
Q 1406 481 1766 481 
L 2356 481 
L 2356 0 
L 1766 0 
Q 1100 0 847 248 
Q 594 497 594 1153 
L 594 3053 
L 172 3053 
L 172 3500 
L 594 3500 
L 594 4494 
L 1172 4494 
z
" transform="scale(0.015625)"/>
      <path id="DejaVuSans-6e" d="M 3513 2113 
L 3513 0 
L 2938 0 
L 2938 2094 
Q 2938 2591 2744 2837 
Q 2550 3084 2163 3084 
Q 1697 3084 1428 2787 
Q 1159 2491 1159 1978 
L 1159 0 
L 581 0 
L 581 3500 
L 1159 3500 
L 1159 2956 
Q 1366 3272 1645 3428 
Q 1925 3584 2291 3584 
Q 2894 3584 3203 3211 
Q 3513 2838 3513 2113 
z
" transform="scale(0.015625)"/>
      <path id="DejaVuSans-67" d="M 2906 1791 
Q 2906 2416 2648 2759 
Q 2391 3103 1925 3103 
Q 1463 3103 1205 2759 
Q 947 2416 947 1791 
Q 947 1169 1205 825 
Q 1463 481 1925 481 
Q 2391 481 2648 825 
Q 2906 1169 2906 1791 
z
M 3481 434 
Q 3481 -459 3084 -895 
Q 2688 -1331 1869 -1331 
Q 1566 -1331 1297 -1286 
Q 1028 -1241 775 -1147 
L 775 -588 
Q 1028 -725 1275 -790 
Q 1522 -856 1778 -856 
Q 2344 -856 2625 -561 
Q 2906 -266 2906 331 
L 2906 616 
Q 2728 306 2450 153 
Q 2172 0 1784 0 
Q 1141 0 747 490 
Q 353 981 353 1791 
Q 353 2603 747 3093 
Q 1141 3584 1784 3584 
Q 2172 3584 2450 3431 
Q 2728 3278 2906 2969 
L 2906 3500 
L 3481 3500 
L 3481 434 
z
" transform="scale(0.015625)"/>
      <path id="DejaVuSans-77" d="M 269 3500 
L 844 3500 
L 1563 769 
L 2278 3500 
L 2956 3500 
L 3675 769 
L 4391 3500 
L 4966 3500 
L 4050 0 
L 3372 0 
L 2619 2869 
L 1863 0 
L 1184 0 
L 269 3500 
z
" transform="scale(0.015625)"/>
      <path id="DejaVuSans-6d" d="M 3328 2828 
Q 3544 3216 3844 3400 
Q 4144 3584 4550 3584 
Q 5097 3584 5394 3201 
Q 5691 2819 5691 2113 
L 5691 0 
L 5113 0 
L 5113 2094 
Q 5113 2597 4934 2840 
Q 4756 3084 4391 3084 
Q 3944 3084 3684 2787 
Q 3425 2491 3425 1978 
L 3425 0 
L 2847 0 
L 2847 2094 
Q 2847 2600 2669 2842 
Q 2491 3084 2119 3084 
Q 1678 3084 1418 2786 
Q 1159 2488 1159 1978 
L 1159 0 
L 581 0 
L 581 3500 
L 1159 3500 
L 1159 2956 
Q 1356 3278 1631 3431 
Q 1906 3584 2284 3584 
Q 2666 3584 2933 3390 
Q 3200 3197 3328 2828 
z
" transform="scale(0.015625)"/>
     </defs>
     <use xlink:href="#DejaVuSans-54"/>
     <use xlink:href="#DejaVuSans-61" transform="translate(44.583984 0)"/>
     <use xlink:href="#DejaVuSans-73" transform="translate(105.863281 0)"/>
     <use xlink:href="#DejaVuSans-6b" transform="translate(157.962891 0)"/>
     <use xlink:href="#DejaVuSans-73" transform="translate(215.873047 0)"/>
     <use xlink:href="#DejaVuSans-20" transform="translate(267.972656 0)"/>
     <use xlink:href="#DejaVuSans-6f" transform="translate(299.759766 0)"/>
     <use xlink:href="#DejaVuSans-76" transform="translate(360.941406 0)"/>
     <use xlink:href="#DejaVuSans-65" transform="translate(420.121094 0)"/>
     <use xlink:href="#DejaVuSans-72" transform="translate(481.644531 0)"/>
     <use xlink:href="#DejaVuSans-6c" transform="translate(522.757812 0)"/>
     <use xlink:href="#DejaVuSans-61" transform="translate(550.541016 0)"/>
     <use xlink:href="#DejaVuSans-69" transform="translate(611.820312 0)"/>
     <use xlink:href="#DejaVuSans-64" transform="translate(639.603516 0)"/>
     <use xlink:href="#DejaVuSans-20" transform="translate(703.080078 0)"/>
     <use xlink:href="#DejaVuSans-62" transform="translate(734.867188 0)"/>
     <use xlink:href="#DejaVuSans-79" transform="translate(798.34375 0)"/>
     <use xlink:href="#DejaVuSans-20" transform="translate(857.523438 0)"/>
     <use xlink:href="#DejaVuSans-63" transform="translate(889.310547 0)"/>
     <use xlink:href="#DejaVuSans-6f" transform="translate(944.291016 0)"/>
     <use xlink:href="#DejaVuSans-6c" transform="translate(1005.472656 0)"/>
     <use xlink:href="#DejaVuSans-6f" transform="translate(1033.255859 0)"/>
     <use xlink:href="#DejaVuSans-72" transform="translate(1094.4375 0)"/>
     <use xlink:href="#DejaVuSans-3b" transform="translate(1135.550781 0)"/>
     <use xlink:href="#DejaVuSans-20" transform="translate(1169.242188 0)"/>
     <use xlink:href="#DejaVuSans-70" transform="translate(1201.029297 0)"/>
     <use xlink:href="#DejaVuSans-6c" transform="translate(1264.505859 0)"/>
     <use xlink:href="#DejaVuSans-6f" transform="translate(1292.289062 0)"/>
     <use xlink:href="#DejaVuSans-74" transform="translate(1353.470703 0)"/>
     <use xlink:href="#DejaVuSans-74" transform="translate(1392.679688 0)"/>
     <use xlink:href="#DejaVuSans-69" transform="translate(1431.888672 0)"/>
     <use xlink:href="#DejaVuSans-6e" transform="translate(1459.671875 0)"/>
     <use xlink:href="#DejaVuSans-67" transform="translate(1523.050781 0)"/>
     <use xlink:href="#DejaVuSans-20" transform="translate(1586.527344 0)"/>
     <use xlink:href="#DejaVuSans-72" transform="translate(1618.314453 0)"/>
     <use xlink:href="#DejaVuSans-61" transform="translate(1659.427734 0)"/>
     <use xlink:href="#DejaVuSans-77" transform="translate(1720.707031 0)"/>
     <use xlink:href="#DejaVuSans-20" transform="translate(1802.494141 0)"/>
     <use xlink:href="#DejaVuSans-6d" transform="translate(1834.28125 0)"/>
     <use xlink:href="#DejaVuSans-65" transform="translate(1931.693359 0)"/>
     <use xlink:href="#DejaVuSans-74" transform="translate(1993.216797 0)"/>
     <use xlink:href="#DejaVuSans-72" transform="translate(2032.425781 0)"/>
     <use xlink:href="#DejaVuSans-69" transform="translate(2073.539062 0)"/>
     <use xlink:href="#DejaVuSans-63" transform="translate(2101.322266 0)"/>
     <use xlink:href="#DejaVuSans-20" transform="translate(2156.302734 0)"/>
     <use xlink:href="#DejaVuSans-76" transform="translate(2188.089844 0)"/>
     <use xlink:href="#DejaVuSans-61" transform="translate(2247.269531 0)"/>
     <use xlink:href="#DejaVuSans-6c" transform="translate(2308.548828 0)"/>
     <use xlink:href="#DejaVuSans-75" transform="translate(2336.332031 0)"/>
     <use xlink:href="#DejaVuSans-65" transform="translate(2399.710938 0)"/>
     <use xlink:href="#DejaVuSans-73" transform="translate(2461.234375 0)"/>
     <use xlink:href="#DejaVuSans-2e" transform="translate(2513.333984 0)"/>
    </g>
   </g>
   <g id="text_18">
    <!-- Meta-Llama-3-8B-Instruct - shapley_value -->
    <g transform="translate(56.784375 18.597656) scale(0.15 -0.15)">
     <defs>
      <path id="DejaVuSans-Bold-4d" d="M 588 4666 
L 2119 4666 
L 3181 2169 
L 4250 4666 
L 5778 4666 
L 5778 0 
L 4641 0 
L 4641 3413 
L 3566 897 
L 2803 897 
L 1728 3413 
L 1728 0 
L 588 0 
L 588 4666 
z
" transform="scale(0.015625)"/>
      <path id="DejaVuSans-Bold-65" d="M 4031 1759 
L 4031 1441 
L 1416 1441 
Q 1456 1047 1700 850 
Q 1944 653 2381 653 
Q 2734 653 3104 758 
Q 3475 863 3866 1075 
L 3866 213 
Q 3469 63 3072 -14 
Q 2675 -91 2278 -91 
Q 1328 -91 801 392 
Q 275 875 275 1747 
Q 275 2603 792 3093 
Q 1309 3584 2216 3584 
Q 3041 3584 3536 3087 
Q 4031 2591 4031 1759 
z
M 2881 2131 
Q 2881 2450 2695 2645 
Q 2509 2841 2209 2841 
Q 1884 2841 1681 2658 
Q 1478 2475 1428 2131 
L 2881 2131 
z
" transform="scale(0.015625)"/>
      <path id="DejaVuSans-Bold-74" d="M 1759 4494 
L 1759 3500 
L 2913 3500 
L 2913 2700 
L 1759 2700 
L 1759 1216 
Q 1759 972 1856 886 
Q 1953 800 2241 800 
L 2816 800 
L 2816 0 
L 1856 0 
Q 1194 0 917 276 
Q 641 553 641 1216 
L 641 2700 
L 84 2700 
L 84 3500 
L 641 3500 
L 641 4494 
L 1759 4494 
z
" transform="scale(0.015625)"/>
      <path id="DejaVuSans-Bold-61" d="M 2106 1575 
Q 1756 1575 1579 1456 
Q 1403 1338 1403 1106 
Q 1403 894 1545 773 
Q 1688 653 1941 653 
Q 2256 653 2472 879 
Q 2688 1106 2688 1447 
L 2688 1575 
L 2106 1575 
z
M 3816 1997 
L 3816 0 
L 2688 0 
L 2688 519 
Q 2463 200 2181 54 
Q 1900 -91 1497 -91 
Q 953 -91 614 226 
Q 275 544 275 1050 
Q 275 1666 698 1953 
Q 1122 2241 2028 2241 
L 2688 2241 
L 2688 2328 
Q 2688 2594 2478 2717 
Q 2269 2841 1825 2841 
Q 1466 2841 1156 2769 
Q 847 2697 581 2553 
L 581 3406 
Q 941 3494 1303 3539 
Q 1666 3584 2028 3584 
Q 2975 3584 3395 3211 
Q 3816 2838 3816 1997 
z
" transform="scale(0.015625)"/>
      <path id="DejaVuSans-Bold-2d" d="M 347 2297 
L 2309 2297 
L 2309 1388 
L 347 1388 
L 347 2297 
z
" transform="scale(0.015625)"/>
      <path id="DejaVuSans-Bold-4c" d="M 588 4666 
L 1791 4666 
L 1791 909 
L 3903 909 
L 3903 0 
L 588 0 
L 588 4666 
z
" transform="scale(0.015625)"/>
      <path id="DejaVuSans-Bold-6c" d="M 538 4863 
L 1656 4863 
L 1656 0 
L 538 0 
L 538 4863 
z
" transform="scale(0.015625)"/>
      <path id="DejaVuSans-Bold-6d" d="M 3781 2919 
Q 3994 3244 4286 3414 
Q 4578 3584 4928 3584 
Q 5531 3584 5847 3212 
Q 6163 2841 6163 2131 
L 6163 0 
L 5038 0 
L 5038 1825 
Q 5041 1866 5042 1909 
Q 5044 1953 5044 2034 
Q 5044 2406 4934 2573 
Q 4825 2741 4581 2741 
Q 4263 2741 4089 2478 
Q 3916 2216 3909 1719 
L 3909 0 
L 2784 0 
L 2784 1825 
Q 2784 2406 2684 2573 
Q 2584 2741 2328 2741 
Q 2006 2741 1831 2477 
Q 1656 2213 1656 1722 
L 1656 0 
L 531 0 
L 531 3500 
L 1656 3500 
L 1656 2988 
Q 1863 3284 2130 3434 
Q 2397 3584 2719 3584 
Q 3081 3584 3359 3409 
Q 3638 3234 3781 2919 
z
" transform="scale(0.015625)"/>
      <path id="DejaVuSans-Bold-33" d="M 2981 2516 
Q 3453 2394 3698 2092 
Q 3944 1791 3944 1325 
Q 3944 631 3412 270 
Q 2881 -91 1863 -91 
Q 1503 -91 1142 -33 
Q 781 25 428 141 
L 428 1069 
Q 766 900 1098 814 
Q 1431 728 1753 728 
Q 2231 728 2486 893 
Q 2741 1059 2741 1369 
Q 2741 1688 2480 1852 
Q 2219 2016 1709 2016 
L 1228 2016 
L 1228 2791 
L 1734 2791 
Q 2188 2791 2409 2933 
Q 2631 3075 2631 3366 
Q 2631 3634 2415 3781 
Q 2200 3928 1806 3928 
Q 1516 3928 1219 3862 
Q 922 3797 628 3669 
L 628 4550 
Q 984 4650 1334 4700 
Q 1684 4750 2022 4750 
Q 2931 4750 3382 4451 
Q 3834 4153 3834 3553 
Q 3834 3144 3618 2883 
Q 3403 2622 2981 2516 
z
" transform="scale(0.015625)"/>
      <path id="DejaVuSans-Bold-38" d="M 2228 2088 
Q 1891 2088 1709 1903 
Q 1528 1719 1528 1375 
Q 1528 1031 1709 848 
Q 1891 666 2228 666 
Q 2563 666 2741 848 
Q 2919 1031 2919 1375 
Q 2919 1722 2741 1905 
Q 2563 2088 2228 2088 
z
M 1350 2484 
Q 925 2613 709 2878 
Q 494 3144 494 3541 
Q 494 4131 934 4440 
Q 1375 4750 2228 4750 
Q 3075 4750 3515 4442 
Q 3956 4134 3956 3541 
Q 3956 3144 3739 2878 
Q 3522 2613 3097 2484 
Q 3572 2353 3814 2058 
Q 4056 1763 4056 1313 
Q 4056 619 3595 264 
Q 3134 -91 2228 -91 
Q 1319 -91 855 264 
Q 391 619 391 1313 
Q 391 1763 633 2058 
Q 875 2353 1350 2484 
z
M 1631 3419 
Q 1631 3141 1786 2991 
Q 1941 2841 2228 2841 
Q 2509 2841 2662 2991 
Q 2816 3141 2816 3419 
Q 2816 3697 2662 3845 
Q 2509 3994 2228 3994 
Q 1941 3994 1786 3844 
Q 1631 3694 1631 3419 
z
" transform="scale(0.015625)"/>
      <path id="DejaVuSans-Bold-42" d="M 2456 2859 
Q 2741 2859 2887 2984 
Q 3034 3109 3034 3353 
Q 3034 3594 2887 3720 
Q 2741 3847 2456 3847 
L 1791 3847 
L 1791 2859 
L 2456 2859 
z
M 2497 819 
Q 2859 819 3042 972 
Q 3225 1125 3225 1434 
Q 3225 1738 3044 1889 
Q 2863 2041 2497 2041 
L 1791 2041 
L 1791 819 
L 2497 819 
z
M 3616 2497 
Q 4003 2384 4215 2081 
Q 4428 1778 4428 1338 
Q 4428 663 3972 331 
Q 3516 0 2584 0 
L 588 0 
L 588 4666 
L 2394 4666 
Q 3366 4666 3802 4372 
Q 4238 4078 4238 3431 
Q 4238 3091 4078 2852 
Q 3919 2613 3616 2497 
z
" transform="scale(0.015625)"/>
      <path id="DejaVuSans-Bold-49" d="M 588 4666 
L 1791 4666 
L 1791 0 
L 588 0 
L 588 4666 
z
" transform="scale(0.015625)"/>
      <path id="DejaVuSans-Bold-6e" d="M 4056 2131 
L 4056 0 
L 2931 0 
L 2931 347 
L 2931 1631 
Q 2931 2084 2911 2256 
Q 2891 2428 2841 2509 
Q 2775 2619 2662 2680 
Q 2550 2741 2406 2741 
Q 2056 2741 1856 2470 
Q 1656 2200 1656 1722 
L 1656 0 
L 538 0 
L 538 3500 
L 1656 3500 
L 1656 2988 
Q 1909 3294 2193 3439 
Q 2478 3584 2822 3584 
Q 3428 3584 3742 3212 
Q 4056 2841 4056 2131 
z
" transform="scale(0.015625)"/>
      <path id="DejaVuSans-Bold-73" d="M 3272 3391 
L 3272 2541 
Q 2913 2691 2578 2766 
Q 2244 2841 1947 2841 
Q 1628 2841 1473 2761 
Q 1319 2681 1319 2516 
Q 1319 2381 1436 2309 
Q 1553 2238 1856 2203 
L 2053 2175 
Q 2913 2066 3209 1816 
Q 3506 1566 3506 1031 
Q 3506 472 3093 190 
Q 2681 -91 1863 -91 
Q 1516 -91 1145 -36 
Q 775 19 384 128 
L 384 978 
Q 719 816 1070 734 
Q 1422 653 1784 653 
Q 2113 653 2278 743 
Q 2444 834 2444 1013 
Q 2444 1163 2330 1236 
Q 2216 1309 1875 1350 
L 1678 1375 
Q 931 1469 631 1722 
Q 331 1975 331 2491 
Q 331 3047 712 3315 
Q 1094 3584 1881 3584 
Q 2191 3584 2531 3537 
Q 2872 3491 3272 3391 
z
" transform="scale(0.015625)"/>
      <path id="DejaVuSans-Bold-72" d="M 3138 2547 
Q 2991 2616 2845 2648 
Q 2700 2681 2553 2681 
Q 2122 2681 1889 2404 
Q 1656 2128 1656 1613 
L 1656 0 
L 538 0 
L 538 3500 
L 1656 3500 
L 1656 2925 
Q 1872 3269 2151 3426 
Q 2431 3584 2822 3584 
Q 2878 3584 2943 3579 
Q 3009 3575 3134 3559 
L 3138 2547 
z
" transform="scale(0.015625)"/>
      <path id="DejaVuSans-Bold-75" d="M 500 1363 
L 500 3500 
L 1625 3500 
L 1625 3150 
Q 1625 2866 1622 2436 
Q 1619 2006 1619 1863 
Q 1619 1441 1641 1255 
Q 1663 1069 1716 984 
Q 1784 875 1895 815 
Q 2006 756 2150 756 
Q 2500 756 2700 1025 
Q 2900 1294 2900 1772 
L 2900 3500 
L 4019 3500 
L 4019 0 
L 2900 0 
L 2900 506 
Q 2647 200 2364 54 
Q 2081 -91 1741 -91 
Q 1134 -91 817 281 
Q 500 653 500 1363 
z
" transform="scale(0.015625)"/>
      <path id="DejaVuSans-Bold-63" d="M 3366 3391 
L 3366 2478 
Q 3138 2634 2908 2709 
Q 2678 2784 2431 2784 
Q 1963 2784 1702 2511 
Q 1441 2238 1441 1747 
Q 1441 1256 1702 982 
Q 1963 709 2431 709 
Q 2694 709 2930 787 
Q 3166 866 3366 1019 
L 3366 103 
Q 3103 6 2833 -42 
Q 2563 -91 2291 -91 
Q 1344 -91 809 395 
Q 275 881 275 1747 
Q 275 2613 809 3098 
Q 1344 3584 2291 3584 
Q 2566 3584 2833 3536 
Q 3100 3488 3366 3391 
z
" transform="scale(0.015625)"/>
      <path id="DejaVuSans-Bold-20" transform="scale(0.015625)"/>
      <path id="DejaVuSans-Bold-68" d="M 4056 2131 
L 4056 0 
L 2931 0 
L 2931 347 
L 2931 1625 
Q 2931 2084 2911 2256 
Q 2891 2428 2841 2509 
Q 2775 2619 2662 2680 
Q 2550 2741 2406 2741 
Q 2056 2741 1856 2470 
Q 1656 2200 1656 1722 
L 1656 0 
L 538 0 
L 538 4863 
L 1656 4863 
L 1656 2988 
Q 1909 3294 2193 3439 
Q 2478 3584 2822 3584 
Q 3428 3584 3742 3212 
Q 4056 2841 4056 2131 
z
" transform="scale(0.015625)"/>
      <path id="DejaVuSans-Bold-70" d="M 1656 506 
L 1656 -1331 
L 538 -1331 
L 538 3500 
L 1656 3500 
L 1656 2988 
Q 1888 3294 2169 3439 
Q 2450 3584 2816 3584 
Q 3463 3584 3878 3070 
Q 4294 2556 4294 1747 
Q 4294 938 3878 423 
Q 3463 -91 2816 -91 
Q 2450 -91 2169 54 
Q 1888 200 1656 506 
z
M 2400 2772 
Q 2041 2772 1848 2508 
Q 1656 2244 1656 1747 
Q 1656 1250 1848 986 
Q 2041 722 2400 722 
Q 2759 722 2948 984 
Q 3138 1247 3138 1747 
Q 3138 2247 2948 2509 
Q 2759 2772 2400 2772 
z
" transform="scale(0.015625)"/>
      <path id="DejaVuSans-Bold-79" d="M 78 3500 
L 1197 3500 
L 2138 1125 
L 2938 3500 
L 4056 3500 
L 2584 -331 
Q 2363 -916 2067 -1148 
Q 1772 -1381 1288 -1381 
L 641 -1381 
L 641 -647 
L 991 -647 
Q 1275 -647 1404 -556 
Q 1534 -466 1606 -231 
L 1638 -134 
L 78 3500 
z
" transform="scale(0.015625)"/>
      <path id="DejaVuSans-Bold-5f" d="M 3200 -916 
L 3200 -1509 
L 0 -1509 
L 0 -916 
L 3200 -916 
z
" transform="scale(0.015625)"/>
      <path id="DejaVuSans-Bold-76" d="M 97 3500 
L 1216 3500 
L 2088 1081 
L 2956 3500 
L 4078 3500 
L 2700 0 
L 1472 0 
L 97 3500 
z
" transform="scale(0.015625)"/>
     </defs>
     <use xlink:href="#DejaVuSans-Bold-4d"/>
     <use xlink:href="#DejaVuSans-Bold-65" transform="translate(99.511719 0)"/>
     <use xlink:href="#DejaVuSans-Bold-74" transform="translate(167.333984 0)"/>
     <use xlink:href="#DejaVuSans-Bold-61" transform="translate(215.136719 0)"/>
     <use xlink:href="#DejaVuSans-Bold-2d" transform="translate(282.617188 0)"/>
     <use xlink:href="#DejaVuSans-Bold-4c" transform="translate(324.121094 0)"/>
     <use xlink:href="#DejaVuSans-Bold-6c" transform="translate(387.841797 0)"/>
     <use xlink:href="#DejaVuSans-Bold-61" transform="translate(422.119141 0)"/>
     <use xlink:href="#DejaVuSans-Bold-6d" transform="translate(489.599609 0)"/>
     <use xlink:href="#DejaVuSans-Bold-61" transform="translate(593.798828 0)"/>
     <use xlink:href="#DejaVuSans-Bold-2d" transform="translate(661.279297 0)"/>
     <use xlink:href="#DejaVuSans-Bold-33" transform="translate(702.783203 0)"/>
     <use xlink:href="#DejaVuSans-Bold-2d" transform="translate(772.363281 0)"/>
     <use xlink:href="#DejaVuSans-Bold-38" transform="translate(813.867188 0)"/>
     <use xlink:href="#DejaVuSans-Bold-42" transform="translate(883.447266 0)"/>
     <use xlink:href="#DejaVuSans-Bold-2d" transform="translate(959.667969 0)"/>
     <use xlink:href="#DejaVuSans-Bold-49" transform="translate(1001.171875 0)"/>
     <use xlink:href="#DejaVuSans-Bold-6e" transform="translate(1038.378906 0)"/>
     <use xlink:href="#DejaVuSans-Bold-73" transform="translate(1109.570312 0)"/>
     <use xlink:href="#DejaVuSans-Bold-74" transform="translate(1169.091797 0)"/>
     <use xlink:href="#DejaVuSans-Bold-72" transform="translate(1216.894531 0)"/>
     <use xlink:href="#DejaVuSans-Bold-75" transform="translate(1266.210938 0)"/>
     <use xlink:href="#DejaVuSans-Bold-63" transform="translate(1337.402344 0)"/>
     <use xlink:href="#DejaVuSans-Bold-74" transform="translate(1396.679688 0)"/>
     <use xlink:href="#DejaVuSans-Bold-20" transform="translate(1444.482422 0)"/>
     <use xlink:href="#DejaVuSans-Bold-2d" transform="translate(1479.296875 0)"/>
     <use xlink:href="#DejaVuSans-Bold-20" transform="translate(1520.800781 0)"/>
     <use xlink:href="#DejaVuSans-Bold-73" transform="translate(1555.615234 0)"/>
     <use xlink:href="#DejaVuSans-Bold-68" transform="translate(1615.136719 0)"/>
     <use xlink:href="#DejaVuSans-Bold-61" transform="translate(1686.328125 0)"/>
     <use xlink:href="#DejaVuSans-Bold-70" transform="translate(1753.808594 0)"/>
     <use xlink:href="#DejaVuSans-Bold-6c" transform="translate(1825.390625 0)"/>
     <use xlink:href="#DejaVuSans-Bold-65" transform="translate(1859.667969 0)"/>
     <use xlink:href="#DejaVuSans-Bold-79" transform="translate(1927.490234 0)"/>
     <use xlink:href="#DejaVuSans-Bold-5f" transform="translate(1992.675781 0)"/>
     <use xlink:href="#DejaVuSans-Bold-76" transform="translate(2042.675781 0)"/>
     <use xlink:href="#DejaVuSans-Bold-61" transform="translate(2107.861328 0)"/>
     <use xlink:href="#DejaVuSans-Bold-6c" transform="translate(2175.341797 0)"/>
     <use xlink:href="#DejaVuSans-Bold-75" transform="translate(2209.619141 0)"/>
     <use xlink:href="#DejaVuSans-Bold-65" transform="translate(2280.810547 0)"/>
    </g>
   </g>
   <g id="legend_1">
    <g id="line2d_33">
     <path d="M 642.122775 54.38625 
L 651.122775 54.38625 
L 660.122775 54.38625 
" style="fill: none; stroke: #2563eb; stroke-width: 2.2; stroke-linecap: square"/>
     <g>
      <use xlink:href="#m7f07b0780a" x="651.122775" y="54.38625" style="fill: #2563eb; stroke: #2563eb"/>
     </g>
    </g>
    <g id="text_19">
     <!-- gsm8k (n=7473) -->
     <g transform="translate(667.322775 57.53625) scale(0.09 -0.09)">
      <defs>
       <path id="DejaVuSans-28" d="M 1984 4856 
Q 1566 4138 1362 3434 
Q 1159 2731 1159 2009 
Q 1159 1288 1364 580 
Q 1569 -128 1984 -844 
L 1484 -844 
Q 1016 -109 783 600 
Q 550 1309 550 2009 
Q 550 2706 781 3412 
Q 1013 4119 1484 4856 
L 1984 4856 
z
" transform="scale(0.015625)"/>
       <path id="DejaVuSans-3d" d="M 678 2906 
L 4684 2906 
L 4684 2381 
L 678 2381 
L 678 2906 
z
M 678 1631 
L 4684 1631 
L 4684 1100 
L 678 1100 
L 678 1631 
z
" transform="scale(0.015625)"/>
       <path id="DejaVuSans-29" d="M 513 4856 
L 1013 4856 
Q 1481 4119 1714 3412 
Q 1947 2706 1947 2009 
Q 1947 1309 1714 600 
Q 1481 -109 1013 -844 
L 513 -844 
Q 928 -128 1133 580 
Q 1338 1288 1338 2009 
Q 1338 2731 1133 3434 
Q 928 4138 513 4856 
z
" transform="scale(0.015625)"/>
      </defs>
      <use xlink:href="#DejaVuSans-67"/>
      <use xlink:href="#DejaVuSans-73" transform="translate(63.476562 0)"/>
      <use xlink:href="#DejaVuSans-6d" transform="translate(115.576172 0)"/>
      <use xlink:href="#DejaVuSans-38" transform="translate(212.988281 0)"/>
      <use xlink:href="#DejaVuSans-6b" transform="translate(276.611328 0)"/>
      <use xlink:href="#DejaVuSans-20" transform="translate(334.521484 0)"/>
      <use xlink:href="#DejaVuSans-28" transform="translate(366.308594 0)"/>
      <use xlink:href="#DejaVuSans-6e" transform="translate(405.322266 0)"/>
      <use xlink:href="#DejaVuSans-3d" transform="translate(468.701172 0)"/>
      <use xlink:href="#DejaVuSans-37" transform="translate(552.490234 0)"/>
      <use xlink:href="#DejaVuSans-34" transform="translate(616.113281 0)"/>
      <use xlink:href="#DejaVuSans-37" transform="translate(679.736328 0)"/>
      <use xlink:href="#DejaVuSans-33" transform="translate(743.359375 0)"/>
      <use xlink:href="#DejaVuSans-29" transform="translate(806.982422 0)"/>
     </g>
    </g>
    <g id="line2d_34">
     <path d="M 642.122775 67.596562 
L 651.122775 67.596562 
L 660.122775 67.596562 
" style="fill: none; stroke: #dc2626; stroke-width: 2.2; stroke-linecap: square"/>
     <g>
      <use xlink:href="#ma6ea38555d" x="651.122775" y="67.596562" style="fill: #dc2626; stroke: #dc2626"/>
     </g>
    </g>
    <g id="text_20">
     <!-- humaneval (n=164) -->
     <g transform="translate(667.322775 70.746562) scale(0.09 -0.09)">
      <use xlink:href="#DejaVuSans-68"/>
      <use xlink:href="#DejaVuSans-75" transform="translate(63.378906 0)"/>
      <use xlink:href="#DejaVuSans-6d" transform="translate(126.757812 0)"/>
      <use xlink:href="#DejaVuSans-61" transform="translate(224.169922 0)"/>
      <use xlink:href="#DejaVuSans-6e" transform="translate(285.449219 0)"/>
      <use xlink:href="#DejaVuSans-65" transform="translate(348.828125 0)"/>
      <use xlink:href="#DejaVuSans-76" transform="translate(410.351562 0)"/>
      <use xlink:href="#DejaVuSans-61" transform="translate(469.53125 0)"/>
      <use xlink:href="#DejaVuSans-6c" transform="translate(530.810547 0)"/>
      <use xlink:href="#DejaVuSans-20" transform="translate(558.59375 0)"/>
      <use xlink:href="#DejaVuSans-28" transform="translate(590.380859 0)"/>
      <use xlink:href="#DejaVuSans-6e" transform="translate(629.394531 0)"/>
      <use xlink:href="#DejaVuSans-3d" transform="translate(692.773438 0)"/>
      <use xlink:href="#DejaVuSans-31" transform="translate(776.5625 0)"/>
      <use xlink:href="#DejaVuSans-36" transform="translate(840.185547 0)"/>
      <use xlink:href="#DejaVuSans-34" transform="translate(903.808594 0)"/>
      <use xlink:href="#DejaVuSans-29" transform="translate(967.431641 0)"/>
     </g>
    </g>
    <g id="line2d_35">
     <path d="M 642.122775 80.806875 
L 651.122775 80.806875 
L 660.122775 80.806875 
" style="fill: none; stroke: #16a34a; stroke-width: 2.2; stroke-linecap: square"/>
     <g>
      <use xlink:href="#m10777e00b2" x="651.122775" y="80.806875" style="fill: #16a34a; stroke: #16a34a"/>
     </g>
    </g>
    <g id="text_21">
     <!-- mmlu (n=1531) -->
     <g transform="translate(667.322775 83.956875) scale(0.09 -0.09)">
      <use xlink:href="#DejaVuSans-6d"/>
      <use xlink:href="#DejaVuSans-6d" transform="translate(97.412109 0)"/>
      <use xlink:href="#DejaVuSans-6c" transform="translate(194.824219 0)"/>
      <use xlink:href="#DejaVuSans-75" transform="translate(222.607422 0)"/>
      <use xlink:href="#DejaVuSans-20" transform="translate(285.986328 0)"/>
      <use xlink:href="#DejaVuSans-28" transform="translate(317.773438 0)"/>
      <use xlink:href="#DejaVuSans-6e" transform="translate(356.787109 0)"/>
      <use xlink:href="#DejaVuSans-3d" transform="translate(420.166016 0)"/>
      <use xlink:href="#DejaVuSans-31" transform="translate(503.955078 0)"/>
      <use xlink:href="#DejaVuSans-35" transform="translate(567.578125 0)"/>
      <use xlink:href="#DejaVuSans-33" transform="translate(631.201172 0)"/>
      <use xlink:href="#DejaVuSans-31" transform="translate(694.824219 0)"/>
      <use xlink:href="#DejaVuSans-29" transform="translate(758.447266 0)"/>
     </g>
    </g>
    <g id="line2d_36">
     <path d="M 642.122775 94.017187 
L 651.122775 94.017187 
L 660.122775 94.017187 
" style="fill: none; stroke: #9333ea; stroke-width: 2.2; stroke-linecap: square"/>
     <g>
      <use xlink:href="#m48aa4144c2" x="651.122775" y="94.017187" style="fill: #9333ea; stroke: #9333ea"/>
     </g>
    </g>
    <g id="text_22">
     <!-- winogrande (n=1267) -->
     <g transform="translate(667.322775 97.167187) scale(0.09 -0.09)">
      <use xlink:href="#DejaVuSans-77"/>
      <use xlink:href="#DejaVuSans-69" transform="translate(81.787109 0)"/>
      <use xlink:href="#DejaVuSans-6e" transform="translate(109.570312 0)"/>
      <use xlink:href="#DejaVuSans-6f" transform="translate(172.949219 0)"/>
      <use xlink:href="#DejaVuSans-67" transform="translate(234.130859 0)"/>
      <use xlink:href="#DejaVuSans-72" transform="translate(297.607422 0)"/>
      <use xlink:href="#DejaVuSans-61" transform="translate(338.720703 0)"/>
      <use xlink:href="#DejaVuSans-6e" transform="translate(400 0)"/>
      <use xlink:href="#DejaVuSans-64" transform="translate(463.378906 0)"/>
      <use xlink:href="#DejaVuSans-65" transform="translate(526.855469 0)"/>
      <use xlink:href="#DejaVuSans-20" transform="translate(588.378906 0)"/>
      <use xlink:href="#DejaVuSans-28" transform="translate(620.166016 0)"/>
      <use xlink:href="#DejaVuSans-6e" transform="translate(659.179688 0)"/>
      <use xlink:href="#DejaVuSans-3d" transform="translate(722.558594 0)"/>
      <use xlink:href="#DejaVuSans-31" transform="translate(806.347656 0)"/>
      <use xlink:href="#DejaVuSans-32" transform="translate(869.970703 0)"/>
      <use xlink:href="#DejaVuSans-36" transform="translate(933.59375 0)"/>
      <use xlink:href="#DejaVuSans-37" transform="translate(997.216797 0)"/>
      <use xlink:href="#DejaVuSans-29" transform="translate(1060.839844 0)"/>
     </g>
    </g>
   </g>
  </g>
 </g>
 <defs>
  <clipPath id="pdf4b5997ff">
   <rect x="56.784375" y="42.597656" width="565.92" height="399.168"/>
  </clipPath>
 </defs>
</svg>
